Coordinates
version=1
nRows=9
nColumns=24
inDegrees=yes

Units are S.I. units (second, meters, Newtons, ...)
Angles are in degrees.

endheader
time	pelvis_tilt	pelvis_list	pelvis_rotation	pelvis_tx	pelvis_ty	pelvis_tz	hip_flexion_r	hip_adduction_r	hip_rotation_r	knee_angle_r	ankle_angle_r	subtalar_angle_r	mtp_angle_r	hip_flexion_l	hip_adduction_l	hip_rotation_l	knee_angle_l	ankle_angle_l	subtalar_angle_l	mtp_angle_l	lumbar_extension	lumbar_bending	lumbar_rotation
      1.06233333	      0.29644568	     -0.67604444	     -3.85490499	     -0.14279736	      0.97148845	      0.35007175	    -13.67262000	      4.03477858	     -6.36593960	    -10.44111411	     17.06105042	      6.69560750	      6.33069836	     22.97730266	      0.00155687	     -1.34584563	     -1.09475961	     -0.15165444	     -6.28030826	     -0.56318677	     -3.99850043	      2.64528044	      6.58079745
      1.06650000	      0.24586383	     -0.58934195	     -3.87451595	     -0.13693669	      0.97085848	      0.34978791	    -13.75898024	      3.87673615	     -6.39696773	    -10.86264368	     17.00947850	      6.63785136	      6.29827854	     22.94397208	      0.14762864	     -1.42596830	     -1.09969479	     -0.42282852	     -6.30958585	     -0.54477334	     -3.89776964	      2.54017450	      6.57633251
      1.07066667	      0.17407816	     -0.48459442	     -3.90085570	     -0.13108967	      0.97023873	      0.34945933	    -13.76769807	      3.68277190	     -6.47984560	    -11.39999574	     17.12294735	      6.78836528	      6.19799392	     22.90791663	      0.31721595	     -1.34931821	     -1.11147372	     -0.83581201	     -6.65531622	     -0.44160297	     -3.79216440	      2.42188690	      6.64688907
      1.07483333	      0.09464353	     -0.37347749	     -3.91411837	     -0.12519127	      0.96967633	      0.34912909	    -13.77366696	      3.48971608	     -6.53947534	    -11.91765072	     17.09934478	      6.83864107	      6.11202205	     22.90616454	      0.49330494	     -1.32366525	     -1.23656255	     -1.24792327	     -6.92164739	     -0.32087658	     -3.65531941	      2.29133069	      6.66960693
      1.07900000	      0.02706255	     -0.24978637	     -3.91935153	     -0.11925893	      0.96918269	      0.34878193	    -13.77997370	      3.28247713	     -6.59426364	    -12.46072460	     17.05838697	      6.84853402	      6.04491747	     22.89719409	      0.68537830	     -1.27952923	     -1.42617288	     -1.68571815	     -7.21829370	     -0.18154745	     -3.53166676	      2.14870157	      6.69367382
      1.08316667	     -0.06755101	     -0.12196665	     -3.91970258	     -0.11331025	      0.96871529	      0.34841719	    -13.73929245	      3.07318133	     -6.62790318	    -13.03354784	     16.97810912	      6.82338094	      6.00452529	     22.93221781	      0.88110948	     -1.22420017	     -1.69400654	     -2.15449024	     -7.53671483	     -0.04399052	     -3.37371504	      2.00434381	      6.70895902
      1.08733333	     -0.15784574	      0.01178825	     -3.91199916	     -0.10733283	      0.96831082	      0.34803826	    -13.68501725	      2.85730072	     -6.66195777	    -13.64157323	     16.86878092	      6.77195724	      5.98574224	     22.96723623	      1.08582024	     -1.14371803	     -2.01351429	     -2.65078857	     -7.90380115	      0.10870395	     -3.21821240	      1.85410128	      6.72456446
      1.09150000	     -0.24487535	      0.15509121	     -3.89637056	     -0.10132894	      0.96796449	      0.34763996	    -13.61497410	      2.63052735	     -6.69593914	    -14.28415505	     16.72155187	      6.70184074	      5.99226209	     23.00420725	      1.30357311	     -1.04112080	     -2.38024704	     -3.17199108	     -8.31221674	      0.28533985	     -3.06282901	      1.69068517	      6.73482677
      1.09566667	     -0.33314310	      0.30245448	     -3.87041137	     -0.09529781	      0.96767094	      0.34722709	    -13.53034707	      2.40313047	     -6.71100374	    -14.94842846	     16.53602153	      6.59760120	      6.02349713	     23.05568961	      1.52762679	     -0.94335741	     -2.80453854	     -3.70478074	     -8.70793543	      0.45000197	     -2.90084464	      1.52026554	      6.73242429
